<svg xmlns:xlink="http://www.w3.org/1999/xlink" id="small_14-day_return_policy_acemend" data-name="small 14-day return policy acemend" xmlns="http://www.w3.org/2000/svg" width="23" height="23" viewBox="0 0 23 23">
  <path id="Path_7654" data-name="Path 7654" d="M.963,11.9a.941.941,0,0,0,.963-.917,9.375,9.375,0,0,1,9.566-9.148,9.754,9.754,0,0,1,6.2,2.181H16.81a.918.918,0,1,0,0,1.833H19.97a.941.941,0,0,0,.963-.917V1.91a.964.964,0,0,0-1.925,0v.764A11.712,11.712,0,0,0,11.492,0,11.258,11.258,0,0,0,0,10.982.941.941,0,0,0,.963,11.9Z" fill="#191919"></path>
  <path id="Path_7655" data-name="Path 7655" d="M57.649,176.32a.941.941,0,0,0-.963.917,9.376,9.376,0,0,1-9.569,9.148,9.761,9.761,0,0,1-6.143-2.131H41.9a.918.918,0,1,0,0-1.833H38.739l-.025,0a.981.981,0,0,0-.109.011c-.027,0-.054.006-.08.012s-.063.018-.094.028-.058.018-.086.03-.052.026-.077.04-.06.033-.089.052c-.007.005-.015.008-.023.013s-.029.027-.044.039a.9.9,0,0,0-.074.066.884.884,0,0,0-.059.068c-.019.023-.037.047-.054.072s-.031.052-.045.079a.825.825,0,0,0-.038.08.9.9,0,0,0-.028.086.843.843,0,0,0-.021.085.954.954,0,0,0-.011.1c0,.019-.006.037-.006.056v3.021a.964.964,0,0,0,1.926,0v-.729a11.728,11.728,0,0,0,7.416,2.588,11.26,11.26,0,0,0,11.494-10.982A.941.941,0,0,0,57.649,176.32Z" transform="translate(-35.612 -165.218)" fill="#191919"></path>
</svg>